<?xml version="1.0" standalone="no"?><!DOCTYPE svg PUBLIC "-//W3C//DTD SVG 1.1//EN" "http://www.w3.org/Graphics/SVG/1.1/DTD/svg11.dtd"><svg t="1617261507694" class="icon" viewBox="0 0 1024 1024" version="1.1" xmlns="http://www.w3.org/2000/svg" p-id="1298" xmlns:xlink="http://www.w3.org/1999/xlink" width="200" height="200"><defs><style type="text/css"></style></defs><path d="M754.986667 757.333333H269.013333c-45.44 0-82.346667-36.906667-82.346666-82.346666V339.84c0-17.706667 14.293333-32 32-32h586.666666c17.706667 0 32 14.293333 32 32v335.146667c0 45.44-36.906667 82.346667-82.346666 82.346666zM250.666667 371.84v303.146667c0 10.026667 8.106667 18.346667 18.346666 18.346666H755.2c10.026667 0 18.346667-8.106667 18.346667-18.346666V371.84H250.666667z" p-id="1299"></path><path d="M805.333333 371.84h-586.666666c-11.52 0-21.973333-6.186667-27.733334-16s-5.76-22.186667 0-32l117.333334-201.173333c5.76-10.026667 16.426667-16 27.733333-16h368.853333c12.16 0 23.253333 6.826667 28.586667 17.706666l100.48 201.173334c4.906667 9.813333 4.48 21.76-1.493333 31.146666-5.76 9.386667-16 15.146667-27.093334 15.146667z m-530.986666-64h479.146666L685.013333 170.666667h-330.666666l-80 137.173333z" p-id="1300"></path><path d="M480 138.666667h64v184.32h-64zM604.16 505.813333h-184.32c-17.706667 0-32-14.293333-32-32s14.293333-32 32-32h184.32c17.706667 0 32 14.293333 32 32s-14.293333 32-32 32zM842.666667 917.333333h-661.333334C140.16 917.333333 106.666667 885.76 106.666667 846.933333V789.333333c0-17.706667 14.293333-32 32-32S170.666667 771.626667 170.666667 789.333333v57.6c0 2.56 4.266667 6.4 10.666666 6.4h661.333334c6.4 0 10.666667-3.84 10.666666-6.4V789.333333c0-17.706667 14.293333-32 32-32s32 14.293333 32 32v57.6c0 38.826667-33.493333 70.4-74.666666 70.4z" p-id="1301"></path></svg>