<?xml version="1.0" standalone="no"?><!DOCTYPE svg PUBLIC "-//W3C//DTD SVG 1.1//EN" "http://www.w3.org/Graphics/SVG/1.1/DTD/svg11.dtd"><svg t="1617261491909" class="icon" viewBox="0 0 1026 1024" version="1.1" xmlns="http://www.w3.org/2000/svg" p-id="1001" xmlns:xlink="http://www.w3.org/1999/xlink" width="200.390625" height="200"><defs><style type="text/css"></style></defs><path d="M808.9 138.5L311 372.5v150.3l-86.9-38.6V333.9L722 99.9 554.8 25.5c-22.4-10-59-10-81.4 0L61.5 208.6C28.7 223.2 2 264.5 2.1 300.4l1 429.2c0.1 36.3 27.5 77.6 60.8 91.9l410.7 175.6c21.7 9.3 57.1 9.3 78.8 0l410.9-175.6c33.4-14.3 60.7-55.6 60.8-91.9l1-429.2c0.1-35.9-26.7-77.2-59.5-91.8l-157.7-70.1zM933 482.1l-24.1 11.2-0.5 169.6c0 7.4-6.6 16.2-14.6 19.7l-36.1 15.6c-7.9 3.4-14.3 0.3-14.3-7.1l-0.1-167.4-23.3 10.8c-11 5.1-17.9-2.9-12.4-14.4l55.8-117.7c5.6-11.9 19.8-18.7 25.4-12.3l57.3 65.3c5.7 6.5-1.6 21.3-13.1 26.7zM697.4 754.4c0.1 7.1-5.9 15.5-13.4 18.7l-33.5 14.4c-7.3 3.2-13.3 0.1-13.4-7l-2-160.3-21.6 10c-10.2 4.7-16.7-3-11.7-14l50.7-111.9c5.1-11.3 18.2-17.6 23.5-11.4l54 63.3c5.4 6.3-1.2 20.4-11.8 25.3L696 592l1.4 162.4z m275.5-46.5c0 3.7-3.4 8.1-7.5 9.9L583.2 878.3c-3.6 1.5-6.5-0.1-6.6-3.5l-0.3-18.7c-0.1-3.4 2.8-7.5 6.4-9L965.6 684c4.1-1.7 7.4-0.1 7.4 3.6l-0.1 20.3z" fill="#626264" p-id="1002"></path></svg>