<?xml version="1.0" standalone="no"?><!DOCTYPE svg PUBLIC "-//W3C//DTD SVG 1.1//EN" "http://www.w3.org/Graphics/SVG/1.1/DTD/svg11.dtd"><svg t="1617260493502" class="icon" viewBox="0 0 1024 1024" version="1.1" xmlns="http://www.w3.org/2000/svg" p-id="6161" xmlns:xlink="http://www.w3.org/1999/xlink" width="200" height="200"><defs><style type="text/css"></style></defs><path d="M914.285714 512l0.036572 192.658286A73.142857 73.142857 0 0 1 950.857143 768v73.142857a73.142857 73.142857 0 0 1-73.142857 73.142857v84.114286a25.6 25.6 0 0 1-25.6 25.6h-21.942857a25.6 25.6 0 0 1-25.6-25.6 25.6 25.6 0 0 1-25.6 25.6h-21.942858a25.6 25.6 0 0 1-25.6-25.6V914.285714H292.571429v84.114286a25.6 25.6 0 0 1-25.6 25.6h-21.942858a25.6 25.6 0 0 1-25.6-25.6 25.6 25.6 0 0 1-25.6 25.6h-21.942857a25.6 25.6 0 0 1-25.6-25.6V914.285714a73.142857 73.142857 0 0 1-73.142857-73.142857v-73.142857a73.142857 73.142857 0 0 1 36.571429-63.341714V512H36.571429a36.571429 36.571429 0 0 1-36.571429-36.571429V256a36.571429 36.571429 0 0 1 36.571429-36.571429h73.142857v-8.082285c0-47.835429 6.144-95.451429 18.285714-141.677715A93.366857 93.366857 0 0 1 218.331429 0h587.337142c42.459429 0 79.542857 28.598857 90.331429 69.668571 12.141714 46.226286 18.285714 93.842286 18.285714 141.677715V219.428571h73.142857a36.571429 36.571429 0 0 1 36.571429 36.571429v219.428571a36.571429 36.571429 0 0 1-36.571429 36.571429h-73.142857zM183.405714 604.16a18.285714 18.285714 0 0 0-0.548571 4.388571v68.022858a18.285714 18.285714 0 0 0 18.285714 18.285714h109.714286a18.285714 18.285714 0 0 0 18.285714-18.285714v-40.594286a18.285714 18.285714 0 0 0-13.860571-17.737143l-109.714286-27.428571a18.285714 18.285714 0 0 0-22.162286 13.312z m639.451429-13.897143a18.285714 18.285714 0 0 0-4.425143 0.548572l-109.714286 27.428571a18.285714 18.285714 0 0 0-13.860571 17.737143v40.594286a18.285714 18.285714 0 0 0 18.285714 18.285714h109.714286a18.285714 18.285714 0 0 0 18.285714-18.285714v-68.022858a18.285714 18.285714 0 0 0-18.285714-18.285714zM658.285714 640h-292.571428V694.857143h292.571428v-54.857143zM804.571429 256H219.428571a36.571429 36.571429 0 0 0-36.315428 32.292571L182.857143 292.571429v153.234285a36.571429 36.571429 0 0 0 29.330286 35.84c99.913143 20.224 199.862857 30.354286 299.812571 30.354286 99.949714 0 199.899429-10.130286 299.812571-30.354286a36.571429 36.571429 0 0 0 29.074286-31.524571L841.142857 445.805714V292.571429a36.571429 36.571429 0 0 0-36.571428-36.571429zM109.714286 274.285714H73.142857v182.857143h36.571429v-182.857143z m804.571428 182.857143h36.571429v-182.857143h-36.571429v182.857143z" fill="#4B4D50" p-id="6162"></path></svg>