<?xml version="1.0" standalone="no"?><!DOCTYPE svg PUBLIC "-//W3C//DTD SVG 1.1//EN" "http://www.w3.org/Graphics/SVG/1.1/DTD/svg11.dtd"><svg t="1618655189682" class="icon" viewBox="0 0 2340 1024" version="1.1" xmlns="http://www.w3.org/2000/svg" p-id="10578" xmlns:xlink="http://www.w3.org/1999/xlink" width="457.03125" height="200"><defs><style type="text/css"></style></defs><path d="M1463.266743 518.436571V111.967086h-52.545829v809.5744h52.282515V518.436571z" fill="#434448" p-id="10579"></path><path d="M1929.567086 955.362743l30.134857-27.823543h20.831086s-8.074971 20.772571 18.197942 20.772571h131.861943s59.304229-5.968457 100.907886-74.371657c40.813714-67.584 79.842743-129.755429 87.888457-355.474285v-3.657143c-8.045714-225.748114-47.074743-287.626971-88.151771-355.240229-41.603657-68.4032-100.907886-74.634971-100.907886-74.634971h-131.861943c-26.243657 0-18.197943 21.065143-18.197943 21.065143l-20.801828-0.292572-30.164115-27.794286h-255.648914l-36.6592 29.374172s-130.545371-1.053257-161.792-2.077257c-30.9248-1.053257-25.453714 48.625371-25.453714 48.625371V879.177143s-5.471086 49.678629 25.453714 48.625371c30.983314-1.024 161.792-2.048 161.792-2.048l36.6592 29.374172 255.912229 0.263314z" fill="#23CA88" p-id="10580"></path><path d="M2258.5344 236.017371s-53.306514-88.941714-144.5888-91.282285c-91.282286-2.340571-241.078857 0-285.023086 3.8912-43.944229 3.920457-115.477943 12.229486-115.477943 12.229485s312.349257 0.789943 370.336915 0.789943c70.217143-0.292571 99.591314 6.495086 174.752914 74.371657z m-124.3136 186.192458s3.657143-105.823086-41.603657-133.909943c-44.997486-27.823543-124.576914-82.709943-124.576914-82.709943s115.477943 56.173714 140.434285 83.207314c24.722286 27.062857 31.217371 91.808914 25.746286 133.412572z" fill="#86E8C1" p-id="10581"></path><path d="M1811.485257 186.865371s-335.4624-5.207771-343.537371 0c-8.074971 5.207771-16.120686 12.4928-17.173943 15.857372-1.024 3.657143-4.154514-21.825829 38.5024-25.746286 42.656914-4.154514 375.018057 0 375.018057 0l-52.809143 9.888914z" fill="#86E8C1" p-id="10582"></path><path d="M2243.730286 875.256686c44.178286-67.613257 86.308571-129.784686 95.173485-356.293486v-2.603886C2330.331429 289.850514 2288.201143 227.708343 2243.730286 160.065829c-44.997486-68.373943-108.719543-74.605714-108.719543-74.605715h-142.248229c-15.857371 0-20.304457 6.495086-20.801828 12.200229v3.8912c0.263314 1.579886 0.497371 3.130514 1.024 4.681143h143.828114s63.956114 5.997714 108.690286 74.400914c42.920229 65.536 83.997257 126.098286 94.4128 336.749714-10.415543 210.651429-51.229257 271.008914-94.4128 336.808229-44.968229 68.4032-108.690286 74.634971-108.690286 74.634971H1971.931429h1.024s-0.760686 2.077257-1.024 4.681143v3.8912c0.760686 5.7344 5.178514 12.229486 21.065142 12.229486h142.248229c-0.526629 0.263314 63.458743-5.968457 108.456229-74.371657z" fill="#242323" p-id="10583"></path><path d="M2258.5344 797.4912s-53.306514 88.941714-144.5888 91.282286c-91.282286 2.340571-241.078857 0-285.023086-3.8912a5525.504 5525.504 0 0 1-115.477943-12.229486s312.349257-0.789943 370.336915-0.789943c70.217143 0.292571 99.591314-6.729143 174.752914-74.371657z m-124.3136-186.192457s3.657143 105.823086-41.603657 133.909943c-44.997486 27.8528-124.576914 82.709943-124.576914 82.709943s115.477943-56.173714 140.434285-83.207315c24.722286-27.062857 31.217371-91.808914 25.746286-133.412571z" fill="#86E8C1" p-id="10584"></path><path d="M1951.158857 843.512686c28.320914-17.934629 44.968229-47.572114 63.6928-97.514057 21.855086-82.944 23.1424-205.180343 23.405714-227.562058 0 0 0.789943-139.644343-23.405714-231.189942-18.724571-49.941943-35.605943-79.579429-63.6928-97.514058-28.379429-17.963886-44.763429-27.062857-124.840228-19.017142-80.106057 8.074971-178.410057 19.017143-178.410058 19.017142s11.176229 20.538514 14.043429 61.118172c2.8672 38.473143 9.098971 244.443429 9.888914 265.771886-1.053257 20.801829-7.021714 227.562057-9.888914 265.801142-3.130514 40.5504-14.043429 61.088914-14.043429 61.088915s98.304 10.942171 178.410058 19.017143c80.369371 8.309029 96.490057-0.789943 124.840228-19.017143z" fill="#202016" p-id="10585"></path><path d="M1793.024 911.389257h-260.593371s-31.188114-3.101257-31.188115-34.581943c0-31.451429 105.033143-9.069714 140.434286-11.176228 35.371886-2.077257 145.642057 15.096686 145.642057 15.096685l5.705143 30.661486z" fill="#2E3C42" p-id="10586"></path><path d="M1891.328 889.826743l-29.637486 31.714743s-47.104 98.830629-53.833143 101.1712c-6.7584 2.340571-23.698286 0-23.698285 0l25.746285-88.941715s-4.388571-15.096686-16.881371-22.381714c-12.726857-7.255771-8.045714-30.661486-8.045714-30.661486l106.349714 9.069715z m-314.660571 37.156571v9.128229h-72.557715v-9.098972h72.557715z" fill="#201E1E" p-id="10587"></path><path d="M1811.485257 843.512686s-335.4624 5.207771-343.537371 0c-8.074971-5.178514-16.120686-12.463543-17.173943-15.857372-1.024-3.627886-4.154514 21.855086 38.5024 25.746286 42.656914 4.154514 375.018057 0 375.018057 0l-52.809143-9.888914z" fill="#86E8C1" p-id="10588"></path><path d="M1967.776914 811.534629c13.019429-18.461257 33.060571-66.062629 40.579657-139.907658 5.997714-35.108571 8.074971-152.137143 8.074972-152.137142v-5.471086s-2.077257-116.736-8.074972-152.137143c-7.548343-73.845029-27.560229-121.417143-40.579657-139.907657-12.990171-18.461257-38.473143-52.282514-107.900343-46.021486-69.456457 5.968457-202.869029 20.2752-202.869028 20.2752s15.857371 38.999771 15.857371 93.886172c0 52.0192 8.864914 210.914743 9.654857 226.772114-0.789943 15.594057-9.654857 174.752914-9.654857 226.772114 0 54.623086-15.857371 93.622857-15.857371 93.622857s133.412571 14.306743 202.869028 20.2752c69.690514 5.997714 94.910171-27.794286 107.900343-46.021485z" fill="#3D4852" p-id="10589"></path><path d="M51.638857 983.186286h218.7264c18.987886 0 14.5408-13.019429 14.5408-13.019429v-12.726857l0.526629-440.32-0.526629-442.865371v-12.726858s4.183771-13.019429-14.5408-13.019428H51.638857S13.9264 44.353829 13.9264 88.824686v854.045257c-0.263314 44.470857 37.741714 40.316343 37.741714 40.316343z" fill="#221F20" p-id="10590"></path><path d="M1415.168 946.000457V89.614629c0-16.149943-11.205486-29.140114-25.248914-29.140115H93.769143c-14.043429 0-25.219657 12.990171-25.219657 29.140115v856.356571c0 15.886629 11.176229 28.8768 25.219657 28.8768h1296.149943c14.043429 0 25.248914-12.990171 25.248914-28.847543z" fill="#2E3C42" p-id="10591"></path><path d="M1395.653486 507.026286V101.522286c0-12.726857-4.681143-22.879086-10.415543-22.879086H105.472c-5.705143 0-10.386286 10.415543-10.386286 22.879086V507.026286h1300.567772zM873.706057 36.571429h-279.317943l-36.6592 23.639771H904.923429l-31.217372-23.669029z" fill="#C9EFC5" p-id="10592"></path><path d="M1395.653486 472.415086v455.8848c0 14.336-4.681143 25.746286-10.415543 25.746285H105.472c-5.705143 0-10.386286-11.410286-10.386286-25.746285V472.415086h1300.567772z m-521.947429 529.232457h-279.317943l-36.6592-26.799543H904.923429l-31.217372 26.799543z" fill="#C9EFC5" p-id="10593"></path><path d="M145.525029 176.215771a11.556571 11.556571 0 0 1-11.439543-11.4688c0-6.231771 5.207771-11.410286 11.439543-11.410285h1205.6576c6.495086 0 11.439543 5.178514 11.439542 11.410285a11.556571 11.556571 0 0 1-11.439542 11.4688H145.525029z m0 58.221715a11.556571 11.556571 0 0 1-11.439543-11.410286c0-6.261029 5.207771-11.4688 11.439543-11.4688h1205.6576c6.495086 0 11.439543 5.207771 11.439542 11.4688a11.556571 11.556571 0 0 1-11.439542 11.410286H145.525029z m0 63.195428a11.556571 11.556571 0 0 1-11.439543-11.410285c0-6.261029 5.207771-11.4688 11.439543-11.4688h1205.6576c6.495086 0 11.439543 5.207771 11.439542 11.4688a11.556571 11.556571 0 0 1-11.439542 11.410285H145.525029z m0 57.226972a11.556571 11.556571 0 0 1-11.439543-11.410286c0-6.261029 5.207771-11.4688 11.439543-11.4688h1205.6576c6.495086 0 11.439543 5.207771 11.439542 11.439543a11.556571 11.556571 0 0 1-11.439542 11.439543H145.525029z m0 68.666514a11.556571 11.556571 0 0 1-11.439543-11.439543c0-6.261029 5.207771-11.439543 11.439543-11.439543h1205.6576c6.495086 0 11.439543 5.178514 11.439542 11.410286a11.556571 11.556571 0 0 1-11.439542 11.4688H145.525029z m0.263314 61.6448a11.381029 11.381029 0 0 1-11.439543-11.4688c0-6.231771 5.207771-11.410286 11.410286-11.410286h1205.686857c6.495086 0 11.410286 5.178514 11.410286 11.410286a11.556571 11.556571 0 0 1-11.410286 11.4688H145.759086z m-0.263314 383.063771a11.556571 11.556571 0 0 0-11.439543 11.439543c0 6.231771 5.207771 11.439543 11.439543 11.439543h1205.6576a11.381029 11.381029 0 0 0 11.439542-11.439543 11.556571 11.556571 0 0 0-11.439542-11.439543H145.525029z m0-74.898285a11.556571 11.556571 0 0 0-11.439543 11.439543c0 6.231771 5.207771 11.439543 11.439543 11.439542h1205.6576a11.381029 11.381029 0 0 0 11.439542-11.439542 11.556571 11.556571 0 0 0-11.439542-11.439543H145.525029z m0-64.248686a11.556571 11.556571 0 0 0-11.439543 11.439543c0 6.261029 5.207771 11.4688 11.439543 11.4688h1205.6576a11.381029 11.381029 0 0 0 11.439542-11.4688 11.556571 11.556571 0 0 0-11.439542-11.410286H145.525029z m0-68.373943a11.556571 11.556571 0 0 0-11.439543 11.410286c0 6.261029 5.207771 11.4688 11.439543 11.4688h1205.6576a11.381029 11.381029 0 0 0 11.439542-11.439543 11.556571 11.556571 0 0 0-11.439542-11.439543H145.525029z m0.263314-74.1376a11.381029 11.381029 0 0 0-11.439543 11.439543c0 6.261029 5.207771 11.439543 11.410286 11.439543h1205.686857a11.381029 11.381029 0 0 0 11.410286-11.410286 11.556571 11.556571 0 0 0-11.410286-11.4688H145.759086z m0-62.6688a11.381029 11.381029 0 0 0-11.439543 11.439543c0 6.231771 5.207771 11.439543 11.410286 11.439543h1205.686857a11.381029 11.381029 0 0 0 11.410286-11.410286 11.556571 11.556571 0 0 0-11.410286-11.4688H145.759086z" fill="#566D7C" p-id="10594"></path><path d="M114.834286 517.207771v1.316572h-20.011886v-1.316572z" fill="#FFE38A" p-id="10595"></path><path d="M1793.287314 122.382629h-259.2768s-30.954057 3.101257-30.954057 34.318628c0 31.451429 104.535771 9.362286 139.644343 11.176229 35.401143 2.077257 144.852114-15.067429 144.852114-15.067429l5.7344-30.427428z" fill="#2E3C42" p-id="10596"></path><path d="M1891.591314 143.945143l-29.637485-31.714743S1814.820571 13.399771 1808.091429 11.0592c-6.7584-2.340571-23.698286 0-23.698286 0l25.746286 88.941714s-4.388571 15.096686-16.881372 22.381715c-12.756114 7.255771-8.074971 30.661486-8.074971 30.661485l106.378971-9.069714zM1576.667429 97.426286v9.069714h-72.557715v-9.069714h72.557715z" fill="#201E1E" p-id="10597"></path><path d="M1950.632229 830.522514c6.495086-6.231771 12.229486-12.990171 17.144685-20.538514 13.019429-18.461257 33.060571-66.062629 40.579657-139.907657 5.997714-35.108571 8.074971-152.137143 8.074972-152.137143v-5.471086s-2.077257-116.765257-8.074972-152.137143c-7.548343-73.874286-27.560229-121.4464-40.579657-139.907657-12.990171-18.461257-38.473143-52.282514-107.900343-46.050743a9292.361143 9292.361143 0 0 0-129.521371 12.756115c207.520914 336.252343 226.5088 549.244343 220.277029 643.393828z" fill="#303F43" p-id="10598"></path></svg>