<?xml version="1.0" standalone="no"?><!DOCTYPE svg PUBLIC "-//W3C//DTD SVG 1.1//EN" "http://www.w3.org/Graphics/SVG/1.1/DTD/svg11.dtd"><svg t="1617260529534" class="icon" viewBox="0 0 1024 1024" version="1.1" xmlns="http://www.w3.org/2000/svg" p-id="7178" xmlns:xlink="http://www.w3.org/1999/xlink" width="200" height="200"><defs><style type="text/css"></style></defs><path d="M631.466667 614.4a51.2 51.2 0 0 1 51.2 51.2v221.866667a51.2 51.2 0 0 1-51.2 51.2h-121.617067a68.3008 68.3008 0 0 1-132.266667-0.136534A17.237333 17.237333 0 0 1 375.466667 938.666667h-17.066667a51.2 51.2 0 0 1-51.2-51.2H102.4a51.2 51.2 0 0 1-51.2-51.2V374.186667a51.2 51.2 0 0 1 18.039467-39.0144l307.2-261.12a51.2 51.2 0 0 1 66.321066 0l307.2 261.12A51.2 51.2 0 0 1 768 374.186667V648.533333h59.989333a85.333333 85.333333 0 0 1 74.581334 43.861334l40.482133 72.8064 31.624533 31.2832a51.2 51.2 0 0 1 15.189334 36.4032v37.666133a51.2 51.2 0 0 1-51.370667 51.029333l-60.535467-0.221866a17.066667 17.066667 0 0 1-16.725333-14.045867C853.930667 866.679467 818.312533 836.266667 777.045333 836.266667c-18.056533 0-35.2256 5.632-49.578666 15.957333a17.066667 17.066667 0 0 1-27.0336-13.789867l-0.682667-155.613866V682.666667A34.133333 34.133333 0 0 1 733.866667 648.533333V374.186667a17.066667 17.066667 0 0 0-6.007467-13.0048l-307.2-261.12a17.066667 17.066667 0 0 0-22.1184 0l-307.2 261.12a17.066667 17.066667 0 0 0-6.007467 13.0048V836.266667a17.066667 17.066667 0 0 0 17.066667 17.066666h85.333333V443.733333a51.2 51.2 0 0 1 51.2-51.2h341.333334a51.2 51.2 0 0 1 51.2 51.2v170.666667z m-34.133334 0v-34.133333H221.866667v119.466666h85.333333v-34.133333a51.2 51.2 0 0 1 51.2-51.2h238.933333z m-290.133333 119.466667h-85.333333v119.466666h85.333333v-119.466666z m70.382933 170.8032a68.3008 68.3008 0 0 1 132.266667-0.136534H631.466667a17.066667 17.066667 0 0 0 17.066666-17.066666V665.6a17.066667 17.066667 0 0 0-17.066666-17.066667H358.4a17.066667 17.066667 0 0 0-17.066667 17.066667v221.866667a17.066667 17.066667 0 0 0 17.066667 17.066666h17.066667c0.7168 0 1.416533 0.0512 2.116266 0.136534zM221.866667 546.133333h375.466666v-102.4a17.066667 17.066667 0 0 0-17.066666-17.066666H238.933333a17.066667 17.066667 0 0 0-17.066666 17.066666v102.4z m512.580266 263.850667A118.9376 118.9376 0 0 1 777.045333 802.133333c53.077333 0 99.1744 35.549867 114.3808 85.1456l47.189334 0.170667a17.066667 17.066667 0 0 0 17.117866-17.066667v-37.495466a17.066667 17.066667 0 0 0-5.0688-12.117334l-31.624533-31.300266a34.133333 34.133333 0 0 1-5.802667-7.68l-40.4992-72.8064A51.2 51.2 0 0 0 827.989333 682.666667h-94.088533l0.546133 127.317333zM776.533333 989.866667a68.266667 68.266667 0 1 1 0-136.533334 68.266667 68.266667 0 0 1 0 136.533334z m0-34.133334a34.133333 34.133333 0 1 0 0-68.266666 34.133333 34.133333 0 0 0 0 68.266666zM477.866667 921.6a34.133333 34.133333 0 1 0-68.266667 0 34.133333 34.133333 0 0 0 68.266667 0z" fill="#F19900" p-id="7179"></path></svg>