<?xml version="1.0" standalone="no"?><!DOCTYPE svg PUBLIC "-//W3C//DTD SVG 1.1//EN" "http://www.w3.org/Graphics/SVG/1.1/DTD/svg11.dtd"><svg t="1617260521276" class="icon" viewBox="0 0 1024 1024" version="1.1" xmlns="http://www.w3.org/2000/svg" p-id="7032" xmlns:xlink="http://www.w3.org/1999/xlink" width="200" height="200"><defs><style type="text/css"></style></defs><path d="M128 421.2224V921.6a25.6 25.6 0 0 0 25.6 25.6h716.8a25.6 25.6 0 0 0 25.6-25.6V421.2224L512 85.1968 128 421.2224z m-42.496-30.8736l409.6-358.4a25.6 25.6 0 0 1 33.792 0l409.6 358.4A25.6 25.6 0 0 1 947.2 409.6v512a76.8 76.8 0 0 1-76.8 76.8H153.6A76.8 76.8 0 0 1 76.8 921.6V409.6a25.6 25.6 0 0 1 8.704-19.2512z" fill="#000000" p-id="7033"></path><path d="M468.992 211.6096a25.6 25.6 0 0 1 34.816 37.5808L362.1376 380.16a25.6 25.6 0 0 1-34.7648-37.632l141.6192-130.9184z m-197.12 182.272a25.6 25.6 0 0 1 34.816 37.632l-106.8544 98.7648a25.6 25.6 0 0 1-34.7648-37.5808l106.8032-98.816z" fill="#000000" p-id="7034"></path><path d="M332.8 768v127.3856h152.9344V768H332.8z m0-51.2h152.9344a51.2 51.2 0 0 1 51.2 51.2v127.3856a51.2 51.2 0 0 1-51.2 51.2H332.8a51.2 51.2 0 0 1-51.2-51.2V768a51.2 51.2 0 0 1 51.2-51.2z" fill="#D3B365" p-id="7035"></path><path d="M537.6 614.4v280.9856h152.9344V614.4H537.6z m0-51.2h152.9344a51.2 51.2 0 0 1 51.2 51.2v280.9856a51.2 51.2 0 0 1-51.2 51.2H537.6a51.2 51.2 0 0 1-51.2-51.2V614.4a51.2 51.2 0 0 1 51.2-51.2z" fill="#D3B365" p-id="7036"></path></svg>