<?xml version="1.0" standalone="no"?><!DOCTYPE svg PUBLIC "-//W3C//DTD SVG 1.1//EN" "http://www.w3.org/Graphics/SVG/1.1/DTD/svg11.dtd"><svg t="1617261745663" class="icon" viewBox="0 0 1024 1024" version="1.1" xmlns="http://www.w3.org/2000/svg" p-id="6406" xmlns:xlink="http://www.w3.org/1999/xlink" width="200" height="200"><defs><style type="text/css"></style></defs><path d="M609.28 91.601455c-31.557818 0-53.480727-7.912727-98.769455-33.605819l-10.33309-5.911272C434.269091 13.870545 399.546182 0 344.250182 0c-93.090909 0-196.049455 26.810182-196.887273 91.834182-0.465455 42.821818 105.658182 418.443636 133.073455 445.812363 22.062545 22.062545 45.428364 21.038545 78.894545 11.077819 6.330182-1.861818 13.032727-4.189091 20.945455-7.074909l50.594909-19.595637 10.891636-4.002909c23.691636-8.471273 40.96-12.613818 52.130909-12.613818 29.230545 0 50.455273 6.842182 89.832727 28.299636l20.107637 11.310546c66.466909 38.167273 101.376 51.991273 156.718545 51.991272 20.898909 0 45.474909-4.980364 74.24-13.730909 11.496727-3.490909 23.412364-7.540364 35.653818-12.101818 9.634909-3.490909 19.083636-7.168 28.299637-10.938182l28.765091-12.288 41.425454-19.083636L785.687273 28.951273l-53.294546 24.436363-7.633454 3.258182c-11.962182 5.12-24.715636 10.24-37.608728 14.941091-10.705455 3.956364-21.038545 7.447273-30.72 10.379636-20.759273 6.330182-37.515636 9.681455-47.243636 9.681455z m242.176 387.304727l-13.125818 4.980363c-10.705455 3.909818-20.945455 7.447273-30.673455 10.379637-20.712727 6.283636-37.469091 9.681455-47.104 9.681454-29.602909 0-50.920727-6.888727-90.670545-28.532363l-20.293818-11.450182c-65.954909-37.841455-100.817455-51.665455-155.741091-51.665455-21.317818 0-43.938909 4.840727-71.307637 13.917091l-18.059636 6.330182-49.245091 19.083636-12.567273 4.654546-5.492363-15.732364-6.190546-18.804363-12.148363-38.725819-10.705455-35.514181c-5.445818-18.618182-11.170909-38.306909-16.896-58.647273l-21.085091-76.706909c-11.636364-43.287273-21.224727-81.221818-26.158545-102.167273 5.12-1.861818 11.170909-3.723636 18.013091-5.492364A369.105455 369.105455 0 0 1 344.250182 93.090909c29.416727 0 50.455273 6.842182 89.739636 28.485818l19.735273 11.170909c65.768727 38.167273 100.445091 51.944727 155.508364 51.944728 20.945455 0 45.521455-4.933818 74.286545-13.684364 11.543273-3.537455 23.505455-7.586909 35.793455-12.101818l13.079272-4.933818 119.063273 324.933818z" fill="#333333" p-id="6407" data-spm-anchor-id="a313x.7781069.0.i11" class="selected"></path><path d="M47.848727 188.509091l221.090909 808.401454a36.864 36.864 0 0 0 71.074909-19.316363L118.923636 169.192727a36.864 36.864 0 0 0-71.074909 19.316364z" fill="#333333" p-id="6408" data-spm-anchor-id="a313x.7781069.0.i13" class="selected"></path></svg>