<?xml version="1.0" standalone="no"?><!DOCTYPE svg PUBLIC "-//W3C//DTD SVG 1.1//EN" "http://www.w3.org/Graphics/SVG/1.1/DTD/svg11.dtd"><svg t="1617260535886" class="icon" viewBox="0 0 1197 1024" version="1.1" xmlns="http://www.w3.org/2000/svg" p-id="7325" xmlns:xlink="http://www.w3.org/1999/xlink" width="233.7890625" height="200"><defs><style type="text/css"></style></defs><path d="M246.280708 449.881781h170.542624v170.542624H246.280708zM246.280708 733.835318h170.542624v170.542624H246.280708zM508.677917 733.835318h170.542624v170.542624H508.677917z" fill="#00CA79" p-id="7326"></path><path d="M169.595391 923.322612h208.391368v-208.391368h-208.391368z m37.889339-170.502029h132.612689v132.612689h-132.612689zM431.965536 923.322612h208.391368v-208.391368h-208.391368z m37.88934-170.502029h132.612688v132.612689h-132.612688zM169.595391 639.369075h208.391368v-208.391368h-208.391368z m37.889339-170.502029h132.612689v132.612689h-132.612689z" fill="#191919" p-id="7327"></path><path d="M1147.005035 705.107079a50.460481 50.460481 0 0 0-46.658016 31.421088h-130.85354l-90.379607 89.824799v-130.095754a50.365758 50.365758 0 1 0 0-54.858351v-124.926566h23.085433L1005.231245 625.174104h61.313071a50.365758 50.365758 0 1 0-4.249019-37.889339H1021.523661l-103.03194-108.701809h-39.377849v-106.902066l67.212982 56.076223 24.249177-29.107132L491.993075 0 0 398.474066l23.84322 29.44543 54.411798-44.05989v640.140394h800.858854V879.817531L985.122831 774.417507h115.224188a50.365758 50.365758 0 1 0 46.658016-69.310428z m-225.712209-48.714865a12.476418 12.476418 0 1 1-12.476419 12.476418 12.503482 12.503482 0 0 1 12.476419-12.517014z m189.446698-67.76779a12.476418 12.476418 0 1 1-12.48995 12.476418 12.48995 12.48995 0 0 1 12.48995-12.517014z m-269.514992-110.041468h-8.673953a56.69869 56.69869 0 1 0 0 37.889339h8.673953v133.384008h-53.22099a50.365758 50.365758 0 1 0 0 37.889339h53.193926v166.374797h-46.83393a50.365758 50.365758 0 1 0 0 37.88934h46.860994v94.100881H116.144358V353.169241l375.51042-304.143142 349.569754 291.179575z m-43.302103 18.944669a18.809351 18.809351 0 1 1-18.795818-18.80935 18.822883 18.822883 0 0 1 18.795818 18.80935z m-44.073421 171.300411a12.476418 12.476418 0 1 1-12.476418-12.476418 12.48995 12.48995 0 0 1 12.476418 12.476418z m6.332933 204.237073a12.48995 12.48995 0 1 1-12.48995-12.476418 12.48995 12.48995 0 0 1 12.48995 12.476418z m386.823094-105.115854a12.476418 12.476418 0 1 1 12.48995-12.476418 12.48995 12.48995 0 0 1-12.48995 12.476418z" fill="#191919" p-id="7328"></path></svg>