<?xml version="1.0" standalone="no"?><!DOCTYPE svg PUBLIC "-//W3C//DTD SVG 1.1//EN" "http://www.w3.org/Graphics/SVG/1.1/DTD/svg11.dtd"><svg t="1617260548319" class="icon" viewBox="0 0 1024 1024" version="1.1" xmlns="http://www.w3.org/2000/svg" p-id="8138" xmlns:xlink="http://www.w3.org/1999/xlink" width="200" height="200"><defs><style type="text/css"></style></defs><path d="M512.24381 456.899048m-170.666667 0a170.666667 170.666667 0 1 0 341.333333 0 170.666667 170.666667 0 1 0-341.333333 0Z" fill="#FFCD00" p-id="8139"></path><path d="M512.24381 400.579048h-292.571429c-6.826667 0-12.190476-5.36381-12.190476-12.190477v-243.809523c0-6.826667 5.36381-12.190476 12.190476-12.190477h292.571429c6.826667 0 12.190476 5.36381 12.190476 12.190477v243.809523c0 6.826667-5.36381 12.190476-12.190476 12.190477z m-280.380953-24.380953h268.190476v-219.428571h-268.190476v219.428571z" p-id="8140"></path><path d="M401.798095 278.674286h-73.142857c-6.826667 0-12.190476-5.36381-12.190476-12.190476v-121.904762c0-6.826667 5.36381-12.190476 12.190476-12.190477h73.142857c6.826667 0 12.190476 5.36381 12.190476 12.190477v121.904762c0 6.826667-5.607619 12.190476-12.190476 12.190476z m-60.952381-24.380953h48.761905v-97.523809h-48.761905v97.523809zM804.815238 400.579048h-292.571428c-6.826667 0-12.190476-5.36381-12.190477-12.190477v-243.809523c0-6.826667 5.36381-12.190476 12.190477-12.190477h292.571428c6.826667 0 12.190476 5.36381 12.190476 12.190477v243.809523c0 6.826667-5.36381 12.190476-12.190476 12.190477z m-280.380952-24.380953h268.190476v-219.428571h-268.190476v219.428571z" p-id="8141"></path><path d="M694.369524 278.674286h-73.142857c-6.826667 0-12.190476-5.36381-12.190477-12.190476v-121.904762c0-6.826667 5.36381-12.190476 12.190477-12.190477h73.142857c6.826667 0 12.190476 5.36381 12.190476 12.190477v121.904762c0 6.826667-5.607619 12.190476-12.190476 12.190476z m-60.952381-24.380953h48.761905v-97.523809h-48.761905v97.523809zM512.24381 805.790476h-292.571429c-6.826667 0-12.190476-5.36381-12.190476-12.190476v-243.809524c0-6.826667 5.36381-12.190476 12.190476-12.190476h292.571429c6.826667 0 12.190476 5.36381 12.190476 12.190476v243.809524c0 6.826667-5.36381 12.190476-12.190476 12.190476z m-280.380953-24.380952h268.190476v-219.428572h-268.190476v219.428572z" p-id="8142"></path><path d="M401.798095 683.885714h-73.142857c-6.826667 0-12.190476-5.36381-12.190476-12.190476v-121.904762c0-6.826667 5.36381-12.190476 12.190476-12.190476h73.142857c6.826667 0 12.190476 5.36381 12.190476 12.190476v121.904762c0 6.826667-5.607619 12.190476-12.190476 12.190476z m-60.952381-24.380952h48.761905v-97.52381h-48.761905v97.52381zM804.815238 805.790476h-292.571428c-6.826667 0-12.190476-5.36381-12.190477-12.190476v-243.809524c0-6.826667 5.36381-12.190476 12.190477-12.190476h292.571428c6.826667 0 12.190476 5.36381 12.190476 12.190476v243.809524c0 6.826667-5.36381 12.190476-12.190476 12.190476z m-280.380952-24.380952h268.190476v-219.428572h-268.190476v219.428572z" p-id="8143"></path><path d="M694.369524 683.885714h-73.142857c-6.826667 0-12.190476-5.36381-12.190477-12.190476v-121.904762c0-6.826667 5.36381-12.190476 12.190477-12.190476h73.142857c6.826667 0 12.190476 5.36381 12.190476 12.190476v121.904762c0 6.826667-5.607619 12.190476-12.190476 12.190476z m-60.952381-24.380952h48.761905v-97.52381h-48.761905v97.52381z" p-id="8144"></path><path d="M146.041905 940.373333h-97.52381c-6.826667 0-12.190476-5.36381-12.190476-12.190476v-780.190476c0-6.826667 5.36381-12.190476 12.190476-12.190476h97.52381c6.826667 0 12.190476 5.36381 12.190476 12.190476v780.190476c0 6.582857-5.607619 12.190476-12.190476 12.190476z m-85.333334-24.380952h73.142858v-755.809524h-73.142858v755.809524z" p-id="8145"></path><path d="M975.481905 940.373333h-97.52381c-6.826667 0-12.190476-5.36381-12.190476-12.190476v-780.190476c0-6.826667 5.36381-12.190476 12.190476-12.190476h97.52381c6.826667 0 12.190476 5.36381 12.190476 12.190476v780.190476c0 6.582857-5.36381 12.190476-12.190476 12.190476z m-85.333334-24.380952h73.142858v-755.809524h-73.142858v755.809524z" p-id="8146"></path><path d="M877.958095 878.933333h-731.428571c-6.826667 0-12.190476-5.36381-12.190476-12.190476v-73.142857c0-6.826667 5.36381-12.190476 12.190476-12.190476h731.428571c6.826667 0 12.190476 5.36381 12.190476 12.190476v73.142857c0 6.826667-5.36381 12.190476-12.190476 12.190476z m-719.238095-24.380952h707.047619v-48.761905h-707.047619v48.761905z" p-id="8147"></path><path d="M877.958095 473.721905h-731.428571c-6.826667 0-12.190476-5.36381-12.190476-12.190476v-73.142858c0-6.826667 5.36381-12.190476 12.190476-12.190476h731.428571c6.826667 0 12.190476 5.36381 12.190476 12.190476v73.142858c0 6.826667-5.36381 12.190476-12.190476 12.190476z m-719.238095-24.380953h707.047619v-48.761904h-707.047619v48.761904z" p-id="8148"></path></svg>