<?xml version="1.0" standalone="no"?><!DOCTYPE svg PUBLIC "-//W3C//DTD SVG 1.1//EN" "http://www.w3.org/Graphics/SVG/1.1/DTD/svg11.dtd"><svg t="1617261418552" class="icon" viewBox="0 0 1024 1024" version="1.1" xmlns="http://www.w3.org/2000/svg" p-id="2923" xmlns:xlink="http://www.w3.org/1999/xlink" width="200" height="200"><defs><style type="text/css"></style></defs><path d="M439.8 830.6h-190c-11.1 0-20.4-10.2-20.4-22.2V173.5c0-12 9.3-22.2 20.4-22.2h514.7c11.1 0 20.4 10.2 20.4 22.2v332.1c0 16.6 13.4 30 30 30s30-13.4 30-30V173.5c0-45.3-36.1-82.2-80.4-82.2H249.8c-44.3 0-80.4 36.9-80.4 82.2v634.9c0 45.3 36.1 82.2 80.4 82.2h190c16.6 0 30-13.4 30-30s-13.4-30-30-30z" p-id="2924"></path><path d="M673.4 276.8H340.8c-16.6 0-30 13.4-30 30s13.4 30 30 30h332.7c16.6 0 30-13.4 30-30s-13.5-30-30.1-30z m0 156.1H340.8c-16.6 0-30 13.4-30 30s13.4 30 30 30h332.7c16.6 0 30-13.4 30-30s-13.5-30-30.1-30zM469 589H341.2c-16.6 0-30 13.4-30 30s13.4 30 30 30H469c16.6 0 30-13.4 30-30s-13.4-30-30-30z m385.1 7.9H684.8c-24.6 0-44.6 20-44.6 44.6v21.4h-79.7c-24.6 0-44.6 20-44.6 44.6v130c0 24.6 20 44.6 44.6 44.6h20.3c9.4 20.2 29.8 34.2 53.5 34.2s44.1-14 53.5-34.2h44.6c9.4 20.2 29.8 34.2 53.5 34.2s44.1-14 53.5-34.2H854c24.6 0 44.6-20 44.6-44.6v-196c0.1-24.6-19.9-44.6-44.5-44.6zM634.4 881.3c-13.2 0-24-10.8-24-24s10.8-24 24-24 24 10.8 24 24-10.8 24-24 24z m151.6 0c-13.2 0-24-10.8-24-24s10.8-24 24-24 24 10.8 24 24-10.8 24-24 24z m62.7-49.2h-9.4c-9.5-19.9-29.8-33.8-53.3-33.8-23.5 0-43.9 13.8-53.3 33.8h-45c-9.5-19.9-29.8-33.8-53.3-33.8s-43.8 13.8-53.3 33.8H566V712.9h92.8c17.4 0 31.5-14.1 31.5-31.5v-34.5h158.4v185.2z" p-id="2925"></path></svg>