<?xml version="1.0" standalone="no"?><!DOCTYPE svg PUBLIC "-//W3C//DTD SVG 1.1//EN" "http://www.w3.org/Graphics/SVG/1.1/DTD/svg11.dtd"><svg t="1617260382669" class="icon" viewBox="0 0 1024 1024" version="1.1" xmlns="http://www.w3.org/2000/svg" p-id="2940" xmlns:xlink="http://www.w3.org/1999/xlink" width="200" height="200"><defs><style type="text/css"></style></defs><path d="M935.808 330.752c10.624 18.176 16.128 26.112 16.768 48.64V840.96c-1.152 35.712-7.296 59.264-30.848 82.944-23.552 23.68-46.976 29.952-82.432 30.976H184.704c-35.584-1.152-59.008-7.424-82.432-30.976C78.72 900.224 72.576 876.8 71.424 840.96V379.392c0-22.528 5.76-30.464 17.152-48.64 11.52-18.176 20.608-27.392 39.552-40.064L449.152 88.064c19.456-12.672 41.472-19.072 65.792-19.072s46.336 6.272 65.792 19.072l321.152 202.624c16.128 12.672 23.296 21.888 33.92 40.064z" fill="#319EEC" p-id="2941"></path><path d="M447.616 833.28H261.504c-27.52 0-50.048-22.528-50.048-50.048V595.584c0-27.52 22.528-50.048 50.048-50.048h186.112c27.52 0 50.048 22.528 50.048 50.048v187.648c0.128 27.52-22.4 50.048-50.048 50.048zM640.896 823.936h-80.896c-12.032 0-21.76-9.856-21.76-21.76V720.64c0-12.032 9.856-21.76 21.76-21.76h80.896c12.032 0 21.76 9.856 21.76 21.76v81.536c0 12.032-9.728 21.76-21.76 21.76zM640.896 670.72h-80.896c-12.032 0-21.76-9.856-21.76-21.76v-81.536c0-12.032 9.856-21.76 21.76-21.76h80.896c12.032 0 21.76 9.856 21.76 21.76V648.96c0 11.904-9.728 21.76-21.76 21.76zM802.944 823.936h-80.896c-12.032 0-21.76-9.856-21.76-21.76V720.64c0-12.032 9.856-21.76 21.76-21.76h80.896c12.032 0 21.76 9.856 21.76 21.76v81.536c0 12.032-9.728 21.76-21.76 21.76z" fill="#FFFFFF" p-id="2942"></path></svg>