<?xml version="1.0" standalone="no"?><!DOCTYPE svg PUBLIC "-//W3C//DTD SVG 1.1//EN" "http://www.w3.org/Graphics/SVG/1.1/DTD/svg11.dtd"><svg t="1617260965443" class="icon" viewBox="0 0 1024 1024" version="1.1" xmlns="http://www.w3.org/2000/svg" p-id="2244" xmlns:xlink="http://www.w3.org/1999/xlink" width="200" height="200"><defs><style type="text/css"></style></defs><path d="M764.5696 726.4768H259.4304c-59.2384 0-107.4176-48.1792-107.4176-107.4176V313.088c0-59.2384 48.1792-107.4176 107.4176-107.4176h505.088c59.2384 0 107.4176 48.1792 107.4176 107.4176v305.9712c0 59.2384-48.1792 107.4176-107.3664 107.4176zM259.4304 226.2016c-47.9232 0-86.9376 39.0144-86.9376 86.9376v305.9712c0 47.9232 39.0144 86.9376 86.9376 86.9376h505.088c47.9232 0 86.9376-39.0144 86.9376-86.9376V313.088c0-47.9232-39.0144-86.9376-86.9376-86.9376H259.4304zM715.264 818.2784H308.736c-5.632 0-10.24-4.608-10.24-10.24s4.608-10.24 10.24-10.24h406.528c5.632 0 10.24 4.608 10.24 10.24s-4.608 10.24-10.24 10.24z" p-id="2245"></path><path d="M295.8848 617.216c-2.9184 0-5.7856-1.2288-7.8336-3.6352-3.6352-4.3008-3.1232-10.752 1.1776-14.4384l166.0928-140.8512c1.8432-1.5872 4.1984-2.4064 6.6048-2.4064h118.1696l140.7488-140.7488c3.9936-3.9936 10.496-3.9936 14.4896 0 3.9936 3.9936 3.9936 10.496 0 14.4896l-143.7696 143.7696c-1.9456 1.9456-4.5056 3.0208-7.2192 3.0208H465.7152l-163.2256 138.4448c-1.9456 1.536-4.3008 2.3552-6.6048 2.3552z" p-id="2246"></path></svg>